<svg xmlns="http://www.w3.org/2000/svg" xmlns:xlink="http://www.w3.org/1999/xlink" width="245.04" height="229" viewBox="0 0 245.04 229"><defs><style>.a{fill:#cde0de;}.b{fill:#00215b;}.c{fill:#f9d0ba;}.d{fill:#fff;}.e{fill:#943d2b;}.f{fill:#cf7250;}.g{fill:#d3edfb;}.h{fill:#b94124;}.i{fill:url(#a);}.j{fill:url(#b);}.k{fill:url(#c);}</style><radialGradient id="a" cx="0.448" cy="0.5" r="0.5" gradientTransform="matrix(1.098, 0.098, 0.109, -0.995, 2.341, 55.232)" gradientUnits="objectBoundingBox"><stop offset="0" stop-color="#f5b19d"/><stop offset="0.337" stop-color="#f5b19d"/><stop offset="0.961" stop-color="#f9cfba"/><stop offset="1" stop-color="#f9cfba"/></radialGradient><radialGradient id="b" cx="3.027" cy="0.44" r="0.754" gradientTransform="matrix(4, 0.098, 0.396, -0.995, 831.544, 102.643)" gradientUnits="objectBoundingBox"><stop offset="0"/><stop offset="0.337"/><stop offset="0.961"/><stop offset="1"/></radialGradient><radialGradient id="c" cx="0.5" cy="0.5" r="0.5" gradientTransform="matrix(0.995, 0.098, 0.098, -0.995, -2.696, 54.475)" xlink:href="#a"/></defs><g transform="translate(-1014 -3235)"><circle class="a" cx="114.5" cy="114.5" r="114.5" transform="translate(1014 3235)"/><g transform="translate(1023 3264.99)"><path class="b" d="M169.9,177.23l.97,19.8h46.76l1.18-19.8Z"/><path d="M169.9,177.23l-1.7.08.98,19.81a1.7,1.7,0,0,0,1.7,1.62h46.76a1.706,1.706,0,0,0,1.7-1.6l1.18-19.81a1.71,1.71,0,0,0-1.7-1.81H169.9a1.679,1.679,0,0,0-1.23.53,1.724,1.724,0,0,0-.47,1.26l1.7-.08v1.7H217l-.98,16.41H172.48l-.9-18.19-1.68.08v0Z"/><path class="c" d="M109.58,107.03c-4.72,1.28-13.58-4.55-12.45-10.21s5.88-9.33,5.88-9.33-.41-8.58,2.32-6.89c2.25,1.39,9.05,5.07,11.24,6.62,2.63,1.87,3.16,4.21,3.71,7.24.57,3.18,2.4,4.28,4.27,6.58,1.58,1.95,2.66,4.75,5.02,5.94,1.13.57-8.68,6.3-8.68,6.3s-5.37-5.95-6.5-6.52S112.7,106.18,109.58,107.03Z"/><path d="M109.58,107.03l-.44-1.64a3.626,3.626,0,0,1-.99.12,8.511,8.511,0,0,1-3.02-.67,13.051,13.051,0,0,1-4.53-3.09,7.954,7.954,0,0,1-1.39-2,4.436,4.436,0,0,1-.47-1.92,2.989,2.989,0,0,1,.07-.67,14.242,14.242,0,0,1,3.02-6.05,17.951,17.951,0,0,1,1.6-1.71c.21-.19.38-.34.49-.44l.12-.1.03-.02h0a1.717,1.717,0,0,0,.66-1.43v-.07c-.01-.14-.02-.51-.02-1a20.345,20.345,0,0,1,.25-3.42,3.614,3.614,0,0,1,.32-1.06l.02-.03h0l-.2-.15.17.18.03-.03-.2-.15.17.18-.51-.53.29.67a.731.731,0,0,0,.21-.14l-.51-.53.29.67-.36-.83v.9a.863.863,0,0,0,.36-.08l-.36-.83v.21l-.22.66a.881.881,0,0,0,.22.03v-.69l-.22.66.08-.26-.12.25.03.01.08-.26-.12.25.02.01c1.19.73,3.44,1.99,5.69,3.28,1.12.64,2.24,1.29,3.21,1.86s1.78,1.09,2.25,1.42a5.726,5.726,0,0,1,2.06,2.48,16.411,16.411,0,0,1,.95,3.67,9.433,9.433,0,0,0,1.99,4.37c.88,1.1,1.79,1.93,2.63,2.98.67.81,1.32,1.97,2.15,3.16A12.71,12.71,0,0,0,126.8,107a7.73,7.73,0,0,0,2,1.47l.68-1.37-1.28.84a1.558,1.558,0,0,0,.59.53l.68-1.37-1.28.84,1.3-.85h-1.56a1.548,1.548,0,0,0,.26.85l1.3-.85h-.15l-1.31-.54a1.377,1.377,0,0,0-.1.54h1.41l-1.31-.54.9.37-.81-.54a.568.568,0,0,0-.09.17l.9.37-.81-.54.3.2-.28-.22-.01.02.3.2-.28-.22-.03.03a6.044,6.044,0,0,1-.6.53c-.52.41-1.26.94-2.07,1.48-1.22.81-2.58,1.66-3.64,2.3-.53.32-.98.59-1.3.78s-.5.3-.5.3l.86,1.47,1.26-1.14c-.01-.01-1.36-1.5-2.86-3.08-.75-.79-1.54-1.6-2.23-2.27-.35-.33-.67-.63-.97-.88-.15-.13-.29-.24-.44-.35a3.623,3.623,0,0,0-.5-.32,5.586,5.586,0,0,0-1.01-.41,4.458,4.458,0,0,0-1.23-.17,15.744,15.744,0,0,0-3.79.73l.48,1.67.45,1.64a14.306,14.306,0,0,1,2.9-.62.691.691,0,0,1,.28.04,2.072,2.072,0,0,1,.42.18l.3-.59-.33.57.04.02.3-.59-.33.57.05-.09-.06.09h0l.05-.09-.06.09a5.016,5.016,0,0,1,.45.37c.41.37.99.92,1.6,1.54.92.93,1.92,1.99,2.69,2.83.38.42.71.77.94,1.03s.36.4.36.4a1.692,1.692,0,0,0,2.12.33c.01-.01,2.22-1.29,4.45-2.73,1.12-.72,2.24-1.47,3.13-2.15a12.334,12.334,0,0,0,1.17-.99,4,4,0,0,0,.48-.57,2.483,2.483,0,0,0,.24-.44,2.032,2.032,0,0,0,.15-.76,1.923,1.923,0,0,0-.3-1.01,1.973,1.973,0,0,0-.73-.65,4.445,4.445,0,0,1-1.12-.83,12.924,12.924,0,0,1-1.58-2.09,29.752,29.752,0,0,0-1.77-2.57c-1.03-1.26-1.96-2.13-2.61-2.95a6.074,6.074,0,0,1-1.31-2.86,19.558,19.558,0,0,0-1.19-4.44,9.176,9.176,0,0,0-3.21-3.89c-.62-.44-1.48-.97-2.48-1.57-1.5-.89-3.3-1.92-4.94-2.85s-3.12-1.78-3.92-2.26a2.984,2.984,0,0,0-1.55-.47,2.477,2.477,0,0,0-1.53.52,2.946,2.946,0,0,0-.77.87,5.611,5.611,0,0,0-.63,1.59,14.126,14.126,0,0,0-.37,2.49c-.06.82-.08,1.59-.08,2.2,0,.72.02,1.21.02,1.23l1.7-.08-1.04-1.35a19.906,19.906,0,0,0-2.79,2.81,17.484,17.484,0,0,0-3.72,7.53,6.861,6.861,0,0,0-.13,1.35,8.308,8.308,0,0,0,1.35,4.38,14.8,14.8,0,0,0,5.09,4.76,13.183,13.183,0,0,0,6.37,1.94,6.976,6.976,0,0,0,1.88-.24Z"/><path class="c" d="M116.68,89.24c-2.2-1.02-6.78-5.27-8.53-3.63s3.01,8.1,3.01,8.1"/><path d="M117.15,88.21a13.809,13.809,0,0,1-1.51-.9c-.92-.61-2-1.38-3.09-2.01a12.65,12.65,0,0,0-1.65-.82,4.875,4.875,0,0,0-1.73-.37,2.561,2.561,0,0,0-1.8.68,2.234,2.234,0,0,0-.59.92,3.075,3.075,0,0,0-.15.98,6.911,6.911,0,0,0,.62,2.55,23.357,23.357,0,0,0,1.88,3.5c.62.97,1.11,1.64,1.12,1.65a1.137,1.137,0,1,0,1.83-1.35l-.03-.04c-.17-.24-.99-1.39-1.75-2.73a17.285,17.285,0,0,1-1-2.03,4.621,4.621,0,0,1-.39-1.56.769.769,0,0,1,.03-.23l.01-.02-.05-.03.04.04.01-.01-.05-.03.04.04c.05-.03.05-.06.25-.06a3.316,3.316,0,0,1,1.32.4,23.728,23.728,0,0,1,2.92,1.77,23.312,23.312,0,0,0,2.79,1.73,1.141,1.141,0,0,0,1.51-.55A1.176,1.176,0,0,0,117.15,88.21Z"/><line class="d" x1="2.29" y1="49.41" transform="translate(106.73 34.73)"/><path d="M110.72,84.06l-2.29-49.41a1.7,1.7,0,0,0-3.4.16l2.29,49.41a1.7,1.7,0,1,0,3.4-.16"/><path class="b" d="M226.29,189.03s-10.06-44.64-9.18-59.54c.96-16.38,4.1-25.87-11.9-39.87-6.5-5.69-26.75-4.05-27.59.74-.13.75-.27,1.46-.42,2.15l-.27-.87-27.3,32.27-21.61-21.26-11.8,9.17s20.67,25.65,30.59,33.45c4.74,3.72,14.2-3.34,22.48-11.36-1.09,27.29-4,54.77-4,54.77Z"/><path d="M226.29,189.03l1.66-.37s-.14-.63-.39-1.78c-.88-4.02-3.09-14.33-5.07-25.41-.99-5.54-1.93-11.28-2.61-16.51a110.927,110.927,0,0,1-1.12-13.45c0-.69.02-1.33.05-1.91.32-5.48.9-10.24.9-14.79a30.12,30.12,0,0,0-2.58-13.06c-2-4.33-5.38-8.66-10.79-13.4a15.945,15.945,0,0,0-6.73-3.13,36.322,36.322,0,0,0-8.29-.9,34.879,34.879,0,0,0-9.69,1.25,12.747,12.747,0,0,0-3.57,1.6,5.631,5.631,0,0,0-1.32,1.21,3.912,3.912,0,0,0-.78,1.7c-.13.73-.26,1.42-.4,2.09l1.66.35,1.62-.5-.27-.87a1.694,1.694,0,0,0-1.29-1.16,1.722,1.722,0,0,0-1.64.57l-26.12,30.87-20.3-19.97a1.706,1.706,0,0,0-2.24-.13l-11.8,9.17a1.729,1.729,0,0,0-.65,1.15,1.688,1.688,0,0,0,.37,1.26c.01.01,5.18,6.43,11.61,13.85,3.21,3.71,6.74,7.66,10.1,11.19a95.55,95.55,0,0,0,9.15,8.68,6.665,6.665,0,0,0,4.2,1.38,12.555,12.555,0,0,0,4.9-1.16,37.187,37.187,0,0,0,7.75-4.8,95.371,95.371,0,0,0,7.86-6.9l-1.18-1.22-1.7-.07c-.54,13.61-1.54,27.28-2.4,37.54-.43,5.13-.83,9.41-1.12,12.41-.14,1.5-.26,2.68-.34,3.48s-.13,1.23-.13,1.23a1.683,1.683,0,0,0,.42,1.31,1.729,1.729,0,0,0,1.26.57l60.98.34a1.733,1.733,0,0,0,1.34-.63,1.7,1.7,0,0,0,.33-1.44l-1.64.36.01-1.7-60.98-.34-.01,1.7,1.69.18c0-.02,2.91-27.52,4-54.88a1.7,1.7,0,0,0-1-1.62,1.72,1.72,0,0,0-1.88.33,79.331,79.331,0,0,1-10.04,8.44,27,27,0,0,1-4.54,2.57,9.221,9.221,0,0,1-3.57.88,3.2,3.2,0,0,1-2.1-.66,91.9,91.9,0,0,1-8.79-8.35c-4.96-5.21-10.35-11.42-14.5-16.33-2.07-2.45-3.83-4.58-5.07-6.09-.62-.76-1.11-1.36-1.45-1.77s-.51-.63-.51-.63l-1.32,1.07,1.04,1.34,10.62-8.26,20.54,20.21a1.7,1.7,0,0,0,2.49-.11l27.3-32.27-1.3-1.1-1.62.5.27.87a1.694,1.694,0,0,0,3.28-.15c.15-.7.29-1.43.43-2.21,0-.02.01-.07.11-.2a3.985,3.985,0,0,1,1.33-.94,17.437,17.437,0,0,1,4.5-1.31,36.1,36.1,0,0,1,6.07-.5,32.726,32.726,0,0,1,7.5.81,12.616,12.616,0,0,1,5.28,2.38c5.18,4.53,8.2,8.48,9.95,12.27a26.779,26.779,0,0,1,2.27,11.64c0,4.25-.57,8.99-.9,14.59-.04.66-.06,1.36-.06,2.11a126.261,126.261,0,0,0,1.46,16.2c2.61,18.61,7.81,41.68,7.82,41.71l1.68-.38.01-1.7Z"/><path class="d" d="M187.1,130.03s21.79-36.9,17.08-41c-3.89-3.38-23.32-1.72-25.02.74C174.5,96.52,187.1,130.03,187.1,130.03Z"/><path d="M187.1,130.03l1.46.87c.01-.02,4.46-7.55,8.92-16.22,2.23-4.34,4.47-8.96,6.16-13.1a58.182,58.182,0,0,0,2.07-5.78,17.335,17.335,0,0,0,.83-4.7,5.843,5.843,0,0,0-.24-1.76,3.457,3.457,0,0,0-1.01-1.6,6.791,6.791,0,0,0-2.16-1.19,18.956,18.956,0,0,0-4.14-.88,43.187,43.187,0,0,0-4.94-.25,60.067,60.067,0,0,0-9.82.8,25.493,25.493,0,0,0-3.79.91,9.164,9.164,0,0,0-1.45.62,3.512,3.512,0,0,0-1.23,1.05,7.2,7.2,0,0,0-1.06,2.67,15.986,15.986,0,0,0-.28,3.19,53.372,53.372,0,0,0,1.44,10.74,214.475,214.475,0,0,0,7.65,25.22,1.711,1.711,0,0,0,1.44,1.1,1.68,1.68,0,0,0,1.61-.83l-1.46-.86,1.59-.6s-.03-.09-.1-.26c-.49-1.31-2.69-7.36-4.77-14.39-1.04-3.52-2.05-7.28-2.79-10.8a48.6,48.6,0,0,1-1.21-9.31,12.72,12.72,0,0,1,.21-2.51,3.892,3.892,0,0,1,.52-1.41l-.5-.35.44.43.06-.08-.51-.35.44.43-.17-.17.16.18.01-.01-.17-.17.16.18.02-.01a2.912,2.912,0,0,1,.54-.28,14.325,14.325,0,0,1,2.19-.65,53.036,53.036,0,0,1,10.82-1.06,35.121,35.121,0,0,1,5.85.42,12.319,12.319,0,0,1,2.08.52,3.49,3.49,0,0,1,1.08.56l.12-.13-.15.09.04.04.12-.13-.15.09a1.9,1.9,0,0,1,.12.83,14.625,14.625,0,0,1-.7,3.75,79.187,79.187,0,0,1-4,10.12c-2.6,5.64-5.81,11.7-8.36,16.34-1.28,2.32-2.39,4.29-3.19,5.67-.4.69-.71,1.24-.93,1.61s-.33.57-.33.57l1.46.84,1.59-.6Z"/><path d="M181.49,101.8l8.25-7.11,12.08,7.79a1.136,1.136,0,1,0,1.23-1.91l-12.79-8.26a1.144,1.144,0,0,0-1.36.09l-8.89,7.67a1.138,1.138,0,0,0,1.48,1.73Z"/><path class="e" d="M185.21,97.67l4.25-3,4.37,3.12-2.87,2.88L191.1,130l-8-.17,4.23-29.41Z"/><path d="M185.21,97.67l.65.93,3.59-2.54,2.63,1.88-1.93,1.93a1.142,1.142,0,0,0-.33.81l.14,28.17-5.56-.12,4.04-28.15a1.17,1.17,0,0,0-.22-.85l-2.12-2.75-.89.69.65.93-.65-.93-.9.69,1.83,2.37-4.16,28.94a1.1,1.1,0,0,0,.26.89,1.142,1.142,0,0,0,.84.4l8,.17a1.1,1.1,0,0,0,.82-.33,1.127,1.127,0,0,0,.34-.81l-.15-28.86,2.54-2.54a1.118,1.118,0,0,0,.33-.9,1.144,1.144,0,0,0-.47-.83l-4.38-3.12a1.126,1.126,0,0,0-1.31,0l-4.25,3a1.138,1.138,0,0,0-.25,1.62Z"/><path class="c" d="M223.54,45.59c-.01,19.44-2.52,35.01-18.33,44.03-11.68,6.66-26.3,4.57-33.86-8.02-7.92-13.21-7.19-38.54-.44-52.17,6.25-12.66,13.44-14.63,29.18-13,17.22,1.78,23.47,12.88,23.45,29.16"/><path d="M223.54,45.59h-1.7c0,9.65-.65,18.22-3.14,25.36a32.02,32.02,0,0,1-5.27,9.64,31.681,31.681,0,0,1-9.06,7.54,25.73,25.73,0,0,1-12.72,3.49,21.47,21.47,0,0,1-10.49-2.66,22.493,22.493,0,0,1-8.34-8.24c-3.68-6.1-5.49-15.38-5.48-24.76-.01-9.56,1.86-19.24,5.1-25.79a32.986,32.986,0,0,1,3.78-6.11,15.649,15.649,0,0,1,6.53-4.99,24.62,24.62,0,0,1,9.22-1.44,77.325,77.325,0,0,1,7.95.48,29.132,29.132,0,0,1,10.32,2.83,19.014,19.014,0,0,1,8.88,9.41c1.86,4.11,2.73,9.25,2.73,15.18v.04h1.69l1.7-.02v-.03c0-8.33-1.58-15.54-5.61-21a22.2,22.2,0,0,0-7.85-6.62,32.467,32.467,0,0,0-11.53-3.2,82.537,82.537,0,0,0-8.3-.5,33.178,33.178,0,0,0-7.3.71,18.625,18.625,0,0,0-8.73,4.45,30.5,30.5,0,0,0-6.55,9.28c-3.56,7.24-5.45,17.29-5.45,27.29.01,9.8,1.81,19.55,5.97,26.51a26.054,26.054,0,0,0,9.61,9.47A24.939,24.939,0,0,0,191.64,95a29.258,29.258,0,0,0,14.41-3.93,35.114,35.114,0,0,0,10.01-8.36,38.53,38.53,0,0,0,7.51-16.69,100.713,100.713,0,0,0,1.67-20.45v-.02l-1.7.04"/><path d="M182.87,54.69a92.206,92.206,0,0,0-2.18,10.68,2.614,2.614,0,0,0-.02.4,3.067,3.067,0,0,0,.22,1.16,3.154,3.154,0,0,0,1.2,1.44,5.418,5.418,0,0,0,2.16.79,12.318,12.318,0,0,0,2.04.16,17,17,0,0,0,2.24-.14,1.7,1.7,0,0,0-.47-3.37h0a14.584,14.584,0,0,1-1.77.11,6.785,6.785,0,0,1-2.04-.25,2.091,2.091,0,0,1-.23-.1l-.05-.03-.2.22.26-.12-.06-.1-.2.22.26-.12-.28.13h.32l-.03-.13-.28.13h.32v-.01a90.667,90.667,0,0,1,2.1-10.23,1.707,1.707,0,0,0-3.31-.84Z"/><path class="c" d="M218.64,55.06c2.38-.27,11.97.02,10.96,7.45s-10.08,7.3-10.54,7.24"/><path d="M218.83,56.75a10.047,10.047,0,0,1,1.12-.05,13.731,13.731,0,0,1,5.38,1.01,4.911,4.911,0,0,1,1.93,1.45,3.547,3.547,0,0,1,.71,2.3,6.354,6.354,0,0,1-.06.83,5.735,5.735,0,0,1-1.33,3.09,7.726,7.726,0,0,1-3.87,2.23,13.488,13.488,0,0,1-3.31.46h-.2l-.05.78.09-.77h-.04l-.05.78.09-.77a1.7,1.7,0,1,0-.38,3.38c.11.01.17.01.25.02h.29a16.011,16.011,0,0,0,6.1-1.25,10.2,10.2,0,0,0,3.65-2.62,9.214,9.214,0,0,0,2.13-4.86,9.544,9.544,0,0,0,.09-1.29,7.026,7.026,0,0,0-1.41-4.36,7.848,7.848,0,0,0-2.34-2.02,13.1,13.1,0,0,0-4.06-1.44,19.268,19.268,0,0,0-3.62-.34c-.59,0-1.09.03-1.5.07a1.7,1.7,0,1,0,.39,3.37Z"/><path d="M178.85,51.94a2.547,2.547,0,1,1-2.24-2.82A2.543,2.543,0,0,1,178.85,51.94Z"/><path d="M202.1,54.37a2.547,2.547,0,1,1-2.24-2.82A2.543,2.543,0,0,1,202.1,54.37Z"/><path d="M226.28,14.19c-6.76-4.63-9.71-.19-15.21-6.11-12.11-13.04-27.96-3.26-35.71,4.39-4.62,4.56-12.04,16.1-10.83,27.85,4.08-2.07,14.48-5.65,18.7-7.52,6.83-3.03-1.82,3.19-3.33,7.88,4.91.44,22.99-7.12,25.48-7.28C211,44.73,215.6,61.12,216.96,63.5c2.51-.81,1.3-6.08,3.34-7.52,2.69-1.88,7.01-1.14,9.81,2.29a64.551,64.551,0,0,0,4.18-23.35C234.28,27.71,232.24,18.28,226.28,14.19Z"/><path d="M226.28,14.19l.96-1.4a15.281,15.281,0,0,0-5.01-2.32,19.028,19.028,0,0,0-3.02-.46,13.415,13.415,0,0,1-3.39-.55,8.815,8.815,0,0,1-3.5-2.53,21.978,21.978,0,0,0-7.28-5.32,18.989,18.989,0,0,0-7.72-1.6,27.772,27.772,0,0,0-13.13,3.74,46.138,46.138,0,0,0-10.02,7.52,41.589,41.589,0,0,0-7.41,10.61,36.2,36.2,0,0,0-4.06,15.86,25.821,25.821,0,0,0,.14,2.77,1.731,1.731,0,0,0,.88,1.32,1.669,1.669,0,0,0,1.58.02c.94-.48,2.33-1.08,3.92-1.73,2.39-.97,5.26-2.05,7.92-3.07s5.12-1.96,6.78-2.69a14.2,14.2,0,0,1,1.37-.55c.15-.05.27-.08.33-.1l.04-.01-.08-.6v.61h.08l-.08-.6v-.59l-.28,1.17a1.142,1.142,0,0,0,.28.03v-1.2l-.28,1.17.34-1.42-.71,1.27a1.905,1.905,0,0,0,.37.15l.34-1.42-.71,1.27.76-1.35-1.36.74a1.582,1.582,0,0,0,.61.62l.76-1.35-1.36.74,1.34-.72h-1.52a1.608,1.608,0,0,0,.18.72l1.34-.72h-.35l-1.08-.47a1.2,1.2,0,0,0-.09.47h1.17l-1.08-.47.37.16-.36-.18-.01.02.37.16-.36-.18h0a3.6,3.6,0,0,1-.27.39c-.28.35-.71.86-1.21,1.43-.75.87-1.65,1.91-2.47,3.03a12.95,12.95,0,0,0-1.99,3.62,1.713,1.713,0,0,0,.2,1.46,1.686,1.686,0,0,0,1.27.75q.3.03.6.03a15.129,15.129,0,0,0,2.88-.34,115.229,115.229,0,0,0,13.3-4.02c2.25-.78,4.34-1.52,5.97-2.07.82-.27,1.52-.5,2.06-.65.27-.08.5-.13.67-.17l.2-.04.05-.01h.01v0h0v0l-.1-1.7-1.52.76a164.656,164.656,0,0,1,7.3,18.21c1.01,2.89,1.88,5.52,2.6,7.58.36,1.03.67,1.92.95,2.65.14.37.27.69.39.98a6.135,6.135,0,0,0,.38.77,1.71,1.71,0,0,0,2,.78,3.578,3.578,0,0,0,1.5-.95,5.338,5.338,0,0,0,1.17-2.31c.3-1.15.41-2.29.6-3.16a4.536,4.536,0,0,1,.31-1.01.763.763,0,0,1,.21-.31,4.106,4.106,0,0,1,2.38-.7,6.838,6.838,0,0,1,5.14,2.67,1.707,1.707,0,0,0,2.9-.45,66.486,66.486,0,0,0,4.3-23.89v-.09a39.432,39.432,0,0,0-1.86-12.08,24.334,24.334,0,0,0-2.67-5.64,15.759,15.759,0,0,0-4.23-4.42l-1,1.36-.96,1.4a12.4,12.4,0,0,1,3.31,3.48,23.546,23.546,0,0,1,3.05,7.58,37.685,37.685,0,0,1,.92,8.27V35a62.939,62.939,0,0,1-4.06,22.63l1.58.63,1.32-1.08a10.222,10.222,0,0,0-7.77-3.92,7.5,7.5,0,0,0-4.34,1.32,4.168,4.168,0,0,0-1.12,1.23,7.628,7.628,0,0,0-.81,2.33c-.22,1.13-.35,2.22-.56,2.94a2.516,2.516,0,0,1-.29.7c-.08.1-.07.08-.11.1l.52,1.62,1.48-.84c-.03-.06-.11-.22-.21-.44-.37-.84-.95-2.5-1.67-4.6-1.08-3.16-2.49-7.38-4.13-11.82a137.625,137.625,0,0,0-5.52-13.16,1.709,1.709,0,0,0-1.63-.94,5.454,5.454,0,0,0-.9.15c-.58.13-1.27.34-2.09.61-2.88.93-7.35,2.58-11.66,3.99-2.15.71-4.26,1.36-6.08,1.82-.91.23-1.74.42-2.46.54a10.192,10.192,0,0,1-1.73.18,2.628,2.628,0,0,1-.3-.01l-.15,1.69,1.62.52A9.336,9.336,0,0,1,182.7,39a40.017,40.017,0,0,1,2.84-3.52c.46-.53.87-1.01,1.2-1.45a5.518,5.518,0,0,0,.46-.69,3.031,3.031,0,0,0,.2-.44,2.106,2.106,0,0,0,.13-.72,1.943,1.943,0,0,0-.17-.79,2,2,0,0,0-.42-.58,1.858,1.858,0,0,0-.78-.43,2.278,2.278,0,0,0-.58-.08,3.077,3.077,0,0,0-.72.09,13.33,13.33,0,0,0-2.31.86c-2.02.9-5.68,2.26-9.32,3.65-1.82.7-3.65,1.4-5.28,2.06s-3.08,1.29-4.18,1.84l.77,1.52,1.69-.17c-.08-.81-.12-1.62-.12-2.42a32.908,32.908,0,0,1,3.7-14.34,37.834,37.834,0,0,1,6.76-9.7,42.911,42.911,0,0,1,9.26-6.96,24.369,24.369,0,0,1,11.5-3.32,15.712,15.712,0,0,1,6.35,1.31,18.7,18.7,0,0,1,6.16,4.52,12.586,12.586,0,0,0,4.33,3.21,11,11,0,0,0,2.99.77c1.4.17,2.6.19,3.85.45a11.569,11.569,0,0,1,4.33,1.92Z"/><rect class="f" width="6" height="24.67" transform="translate(13.97 62.97)"/><path class="f" d="M19.97,87.64v-1.7h-4.3V64.67h2.6V87.63h1.7v.01h1.7V62.97a1.679,1.679,0,0,0-.5-1.2,1.7,1.7,0,0,0-1.2-.5h-6a1.679,1.679,0,0,0-1.2.5,1.7,1.7,0,0,0-.5,1.2V87.64a1.679,1.679,0,0,0,.5,1.2,1.7,1.7,0,0,0,1.2.5h6a1.679,1.679,0,0,0,1.2-.5,1.7,1.7,0,0,0,.5-1.2Z"/><rect class="f" width="6" height="18.67" transform="translate(29.3 68.97)"/><path class="f" d="M35.3,87.64v-1.7H31V70.67h2.6V87.63h1.7v.01H37V68.97a1.679,1.679,0,0,0-.5-1.2,1.7,1.7,0,0,0-1.2-.5h-6a1.679,1.679,0,0,0-1.2.5,1.7,1.7,0,0,0-.5,1.2V87.64a1.679,1.679,0,0,0,.5,1.2,1.7,1.7,0,0,0,1.2.5h6a1.679,1.679,0,0,0,1.2-.5,1.7,1.7,0,0,0,.5-1.2Z"/><rect class="f" width="6" height="32.33" transform="translate(44.63 55.3)"/><path class="f" d="M50.63,87.64v-1.7h-4.3V57h2.6V87.63h1.7v.01h1.7V55.3a1.679,1.679,0,0,0-.5-1.2,1.7,1.7,0,0,0-1.2-.5h-6a1.679,1.679,0,0,0-1.2.5,1.7,1.7,0,0,0-.5,1.2V87.63a1.679,1.679,0,0,0,.5,1.2,1.7,1.7,0,0,0,1.2.5h6a1.679,1.679,0,0,0,1.2-.5,1.7,1.7,0,0,0,.5-1.2h-1.7Z"/><rect class="f" width="6" height="48.67" transform="translate(59.97 38.97)"/><path class="f" d="M65.97,87.64v-1.7h-4.3V40.67h2.6V87.63h1.7v.01h1.7V38.97a1.679,1.679,0,0,0-.5-1.2,1.7,1.7,0,0,0-1.2-.5h-6a1.679,1.679,0,0,0-1.2.5,1.7,1.7,0,0,0-.5,1.2V87.64a1.679,1.679,0,0,0,.5,1.2,1.7,1.7,0,0,0,1.2.5h6a1.679,1.679,0,0,0,1.2-.5,1.7,1.7,0,0,0,.5-1.2Z"/><rect class="f" width="6" height="55.67" transform="translate(75.3 31.97)"/><path class="f" d="M81.3,87.64v-1.7H77V33.67h2.6V87.63h1.7v.01H83V31.97a1.679,1.679,0,0,0-.5-1.2,1.7,1.7,0,0,0-1.2-.5h-6a1.679,1.679,0,0,0-1.2.5,1.7,1.7,0,0,0-.5,1.2V87.64a1.679,1.679,0,0,0,.5,1.2,1.7,1.7,0,0,0,1.2.5h6a1.679,1.679,0,0,0,1.2-.5,1.7,1.7,0,0,0,.5-1.2Z"/><line class="d" x2="86.84" transform="translate(1.13 88.77)"/><path d="M1.13,89.91H87.96a1.13,1.13,0,0,0,0-2.26H1.13A1.12,1.12,0,0,0,0,88.77a1.144,1.144,0,0,0,1.13,1.14"/><rect class="g" width="36.07" height="45.6" transform="translate(164.906 128.218) rotate(-27.085)"/><path d="M217.79,152.39l-.77-1.51-30.6,15.65-19.21-37.57,29.09-14.88,19.99,39.09,1.5-.78-.77-1.51.77,1.51,1.51-.77-20.76-40.6a1.679,1.679,0,0,0-.99-.84,1.724,1.724,0,0,0-1.3.1L164.13,126.7a1.7,1.7,0,0,0-.74,2.29l20.76,40.6a1.679,1.679,0,0,0,.99.84,1.724,1.724,0,0,0,1.3-.1l32.12-16.42a1.7,1.7,0,0,0,.74-2.29Z"/><path class="c" d="M186.83,161.93c-4.27,1.99-8.93,2.5-11.79-1.91-1.1-1.7-4.01-2.85-4.07-4.92-.09-2.99,3.17-2.54,4.48-4.56-1.48-.74-7.33-.86-5.9-5.13,1.64-4.92,21.93-.46,22.47,1.78l2.31,9.69A32.789,32.789,0,0,1,186.83,161.93Z"/><path d="M186.83,161.93l-.72-1.54a12.168,12.168,0,0,1-5,1.31,5.232,5.232,0,0,1-2.52-.58,5.759,5.759,0,0,1-2.12-2.03,7.5,7.5,0,0,0-1.39-1.54c-.72-.63-1.42-1.16-1.86-1.62a2.857,2.857,0,0,1-.45-.57.719.719,0,0,1-.1-.31h0v-.07a1.342,1.342,0,0,1,.05-.39.618.618,0,0,1,.24-.31,10.172,10.172,0,0,1,1.56-.85,7.978,7.978,0,0,0,1.19-.73,4.789,4.789,0,0,0,1.16-1.24,1.7,1.7,0,0,0,.21-1.37,1.657,1.657,0,0,0-.88-1.07,4.94,4.94,0,0,0-.94-.35c-.53-.15-1.09-.27-1.65-.42a7,7,0,0,1-2.09-.81,1.4,1.4,0,0,1-.41-.39.688.688,0,0,1-.1-.4,2.375,2.375,0,0,1,.13-.7.536.536,0,0,1,.19-.22,3.838,3.838,0,0,1,1.58-.59,15.389,15.389,0,0,1,2.93-.24,43.771,43.771,0,0,1,9.97,1.38,26.1,26.1,0,0,1,3.74,1.22,5.278,5.278,0,0,1,.92.49l.07.06.01.01.34-.36-.41.28.07.08.34-.36-.41.28.93-.63-1.08.26a.928.928,0,0,0,.16.37l.93-.63-1.08.26,2.31,9.69,1.65-.39-1.13-1.27a30.4,30.4,0,0,1-7.08,4.78l.74,1.51.72,1.54a34.079,34.079,0,0,0,7.9-5.33,1.684,1.684,0,0,0,.52-1.66l-2.31-9.69a2.327,2.327,0,0,0-.55-1.02,4.947,4.947,0,0,0-1.27-.96,16.7,16.7,0,0,0-3.02-1.22,46.889,46.889,0,0,0-12.97-2.1,15.876,15.876,0,0,0-4.68.58,6.291,6.291,0,0,0-1.92.96,3.813,3.813,0,0,0-1.33,1.84,5.606,5.606,0,0,0-.31,1.78,4.109,4.109,0,0,0,.36,1.72,4.65,4.65,0,0,0,1.8,2,10.923,10.923,0,0,0,3.11,1.22c.47.12.9.22,1.23.31a3.055,3.055,0,0,1,.41.12l.12.04.04.02.76-1.52-1.43-.92a2.031,2.031,0,0,1-.69.6c-.27.16-.61.32-1,.51a6.472,6.472,0,0,0-1.96,1.33,3.909,3.909,0,0,0-.82,1.29,4.5,4.5,0,0,0-.29,1.64v.17h0a4.2,4.2,0,0,0,.81,2.33,10.936,10.936,0,0,0,2.12,2.09,7.352,7.352,0,0,1,1.41,1.37,9.168,9.168,0,0,0,3.39,3.19,8.8,8.8,0,0,0,4.1.97,15.731,15.731,0,0,0,6.44-1.63Z"/><path class="b" d="M206.33,90.42c8.25,6.12,14.99,17.45,17.75,22.83,4.83,9.42,14,28.58,8.1,39.16-1.86,3.33-6.63,6.99-10.46,7.6-5.46.88-12.53,1.09-26.79,1.38-1.88-6.15-2.46-11.89-4.56-17.97L215.18,140"/><path d="M205.32,91.78a52.255,52.255,0,0,1,10.57,11.32,90.935,90.935,0,0,1,6.69,10.92,131.917,131.917,0,0,1,6.32,13.99c2,5.36,3.51,11.08,3.5,15.96a15.514,15.514,0,0,1-1.7,7.6,14.72,14.72,0,0,1-4.02,4.28,13.031,13.031,0,0,1-5.23,2.47c-5.27.85-12.29,1.08-26.55,1.36l.03,1.7,1.63-.5c-.91-2.98-1.52-5.9-2.16-8.88a78.742,78.742,0,0,0-2.42-9.15l-1.61.56.23,1.68,24.81-3.42a1.7,1.7,0,0,0-.47-3.37l-24.81,3.42a1.691,1.691,0,0,0-1.22.8,1.716,1.716,0,0,0-.16,1.45,74.417,74.417,0,0,1,2.31,8.76c.64,2.95,1.26,5.98,2.23,9.15a1.687,1.687,0,0,0,1.66,1.2c14.26-.29,21.36-.5,27.02-1.4a16.16,16.16,0,0,0,6.71-3.09,17.923,17.923,0,0,0,4.97-5.36,18.805,18.805,0,0,0,2.13-9.26c-.01-5.56-1.64-11.57-3.72-17.15a137.067,137.067,0,0,0-6.48-14.35,94.69,94.69,0,0,0-6.95-11.35,55.351,55.351,0,0,0-11.3-12.07,1.7,1.7,0,1,0-2.01,2.73Z"/><path class="h" d="M197.3,76.77c-2.98,3.43-5.8,4.62-8.65,4.41-2.59-.19-5.38-2.99-6.69-5.69Z"/><path class="h" d="M197.3,76.77l-1.28-1.12a12.76,12.76,0,0,1-3.58,3.02,6.516,6.516,0,0,1-3.17.82c-.17,0-.33-.01-.5-.02a3.432,3.432,0,0,1-1.3-.41,8.35,8.35,0,0,1-2.25-1.8,10.85,10.85,0,0,1-1.73-2.53l-1.53.74-.14,1.7,15.34,1.29.14-1.69-1.28-1.12,1.28,1.12.14-1.7L182.1,73.78a1.7,1.7,0,0,0-1.54.73,1.676,1.676,0,0,0-.13,1.7,14.405,14.405,0,0,0,3.26,4.32,10.654,10.654,0,0,0,2.23,1.56,6.817,6.817,0,0,0,2.61.77q.375.03.75.03a10.1,10.1,0,0,0,4.77-1.22,16.284,16.284,0,0,0,4.54-3.79,1.707,1.707,0,0,0,.29-1.76,1.728,1.728,0,0,0-1.43-1.06Z"/><path class="i" d="M172.52,56.58a6.308,6.308,0,0,0-5.12,2.63,64.991,64.991,0,0,0,.91,8.41,6.284,6.284,0,0,0,3.61,1.59q.315.03.63.03a6.33,6.33,0,0,0,.61-12.63c-.22-.02-.43-.03-.64-.03"/><path class="j" d="M167.4,59.21a6.349,6.349,0,0,0,.9,8.41,65.2,65.2,0,0,1-.9-8.41"/><path class="k" d="M203.85,59.84a6.33,6.33,0,0,0-.6,12.63q.315.03.63.03a6.33,6.33,0,0,0,.61-12.63c-.21-.02-.42-.03-.64-.03"/></g></g></svg>