<svg xmlns="http://www.w3.org/2000/svg" width="245.62" height="165.283" viewBox="0 0 245.62 165.283"><defs><style>.a{fill:#001f36;}.b{fill:#2c2c2c;}.c{fill:#fff;}.d{fill:#5976ba;}.e{fill:#f9d0ba;}.f{fill:#00215b;}.g{fill:#943d2b;}.h{fill:#b94124;}</style></defs><g transform="translate(0 -0.001)"><path class="a" d="M58.26,117.1c3.14,11.43,5.21,45.5,5.21,45.5H13.26a319.878,319.878,0,0,1,3.7-36.5c2.08-12.15,6.8-28.5,14.9-38.33,7.77-9.42,14.09-4.92,16.69-1.63C52.36,90.97,55.12,105.66,58.26,117.1Z"/><path class="b" d="M30.55,86.69c-9.76,11.83-13.93,31.3-15.27,39.12a327.257,327.257,0,0,0-3.73,36.72,1.679,1.679,0,0,0,.47,1.24,1.7,1.7,0,0,0,1.22.52H63.45a1.673,1.673,0,0,0,1.24-.54,1.7,1.7,0,0,0,.46-1.27c-.08-1.4-2.12-34.38-5.27-45.85l-2.33-9.08C55.2,98,52.96,88.98,49.89,85.09c-1.09-1.38-4.11-4.61-8.58-4.66C37.63,80.39,34.01,82.49,30.55,86.69ZM18.64,126.38c1.01-5.89,5.04-26.02,14.54-37.53,2.77-3.36,5.5-5.05,8.1-5.02,2.99.03,5.15,2.36,5.94,3.36,2.61,3.31,4.87,12.4,7.05,21.19l2.35,9.17c2.65,9.65,4.56,36.22,5.04,43.35H15.04A319.487,319.487,0,0,1,18.64,126.38Z"/><path class="c" d="M60.76,128.6s-13-30.75-24.83-39c-4.23-2.95,13.63-1.13,15.33,1.33C55.93,97.68,60.76,128.6,60.76,128.6Z"/><path class="b" d="M35.88,86.56c-1.62.33-2.12,1.19-2.26,1.85s-.02,1.64,1.33,2.58c11.29,7.87,24.11,37.96,24.24,38.27a1.7,1.7,0,0,0,3.24-.93c-.2-1.28-4.95-31.38-9.78-38.37C50.68,87.1,39.05,85.92,35.88,86.56Zm3,3.23c3.7.13,9.94,1.14,11.03,2.17,2.36,3.42,4.99,14.57,6.9,24.25C52.3,107.31,45.6,95.68,38.88,89.79Z"/><path class="b" d="M49.25,93.06l-4.72,11.09a1.136,1.136,0,0,0,2.09.89l4.72-11.09a1.13,1.13,0,0,0-.6-1.49A1.147,1.147,0,0,0,49.25,93.06Z"/><path class="d" d="M59.02,110.31c-.89-7.12-2.67-12.67-5-16.67l-3.33.67-2,3.67,4.33,2s1.29,8.22,1.67,10.33a61.447,61.447,0,0,0,2.44,7.36l3.97,14.27C61.1,131.93,60.02,118.31,59.02,110.31Z"/><path class="b" d="M53.8,92.53l-3.33.67a1.123,1.123,0,0,0-.77.57l-2,3.67a1.132,1.132,0,0,0,.52,1.57s2.95,1.36,3.79,1.75c.17,1.07,1.57,9.75,1.57,9.75a60.653,60.653,0,0,0,2.48,7.52c.03.11,3.95,14.21,3.95,14.21a1.135,1.135,0,0,0,1.29.81,1.122,1.122,0,0,0,.93-1.21c-.01-.14-1.09-13.74-2.08-21.67h0c-.87-6.99-2.61-12.74-5.15-17.1A1.122,1.122,0,0,0,53.8,92.53Zm-.41,2.39a44.051,44.051,0,0,1,4.5,15.53h0c.34,2.7.68,6.07,1,9.33-.19-.68-.67-2.42-.67-2.42a.358.358,0,0,0-.04-.11,58.59,58.59,0,0,1-2.38-7.14L54.14,99.8a1.117,1.117,0,0,0-.65-.85s-2.01-.93-3.23-1.49c.48-.88.91-1.66,1.17-2.14C51.95,95.21,52.65,95.07,53.39,94.92Z"/><path class="e" d="M73.28,49.8c.39-6.45.88-12.22-.41-18.42C70,17.55,58.9,15.85,43.09,16.28c-17.31.47-29.33,5.59-30.55,21.82-1.46,19.38,3.37,40.93,19.33,49.67,14.44,7.9,30.33,5.33,35.67-4.67a49.555,49.555,0,0,0,4.83-15.46c2.76.22,6.57.2,6.5-1.59C78.79,64.14,75.54,55.92,73.28,49.8Z"/><path class="b" d="M43.04,14.58c-13.09.35-30.68,3.16-32.2,23.4C9.02,62.17,16.57,81.34,31.05,89.27c8.68,4.75,18.24,6.11,26.22,3.72,5.38-1.61,9.45-4.75,11.76-9.08a50.215,50.215,0,0,0,4.72-14.5c3.88.12,5.28-.65,5.94-1.29a2.794,2.794,0,0,0,.87-2.02v-.11c-.06-1.67-1.63-5.95-4.2-12.8,0,0-1.15-3.08-1.36-3.64.02-.4.07-1.06.07-1.06.17-2.78.34-5.49.34-8.2a44.692,44.692,0,0,0-.87-9.26C71.24,15.13,57.75,14.18,43.04,14.58ZM32.68,86.28c-19.67-10.77-19.1-39.5-18.45-48.05,1.02-13.49,9.93-19.74,28.9-20.25,16.26-.44,25.56,1.61,28.08,13.74a41.388,41.388,0,0,1,.8,8.53c0,2.58-.16,5.21-.34,8.02l-.09,1.43v.11a1.459,1.459,0,0,0,.11.58l1.49,3.99c1.55,4.13,3.62,9.64,3.92,11.38-.44.16-1.65.43-4.61.19a1.71,1.71,0,0,0-1.82,1.44A47.425,47.425,0,0,1,66.02,82.3c-1.87,3.52-5.24,6.08-9.73,7.42C49.28,91.82,40.46,90.53,32.68,86.28Z"/><path class="e" d="M42.38,52.65c-2.34-.51-11.91-1.23-11.68,6.27s9.27,8.31,9.73,8.3"/><path class="b" d="M31.53,52.89a7.26,7.26,0,0,0-2.54,6.07c.25,8.32,9.62,9.97,11.45,9.95a1.68,1.68,0,0,0,1.66-1.68,1.712,1.712,0,0,0-1.65-1.72c-.08,0-7.87-.59-8.06-6.65a3.877,3.877,0,0,1,1.31-3.35c2.16-1.79,6.61-1.58,8.31-1.2a1.7,1.7,0,1,0,.73-3.33C40.78,50.55,34.95,50.06,31.53,52.89Z"/><path class="b" d="M20.8,10.26C33.39,1.13,35.79,2.51,38.76,2.25c13.34-1.16,25.32,7.95,31,14.68,2.37,2.8,9.33,11.33,5.83,18.67-.5,1.5-20-12-21-10C47.63,36.28,45.44,59,43.79,61.23c-2.48-1.06-.67-6.18-2.61-7.82-2.55-2.15-12-3.96-11.32,7.71C27,62.48,24.24,74.26,19.1,76.26,12.79,70.73.72,51.69,1.76,35.6,2.22,28.39,6.13,10.93,20.8,10.26Z"/><path class="b" d="M38.61.56,37.53.6c-2.82.04-6.34.09-17.37,8.03C5.63,9.7.68,25.93.06,35.49.02,36.16,0,36.84,0,37.52,0,53.44,11.44,71.81,17.97,77.54a1.7,1.7,0,0,0,1.74.31c3.6-1.4,5.9-6.1,7.94-10.24.9-1.83,2.26-4.6,2.95-4.96a1.78,1.78,0,0,0,.96-1.63c-.15-2.56.16-5.86,2.5-7.03a6.385,6.385,0,0,1,6.02.72c.34.29.43,1.68.48,2.6.11,1.9.27,4.51,2.55,5.49a1.709,1.709,0,0,0,2.04-.55c.74-1.01,1.21-3.2,2.28-8.51,1.58-7.84,3.97-19.52,8.18-26.48,1.97.65,7.02,3.59,10.19,5.44,7.4,4.3,8.96,5.1,10.29,4.6a1.825,1.825,0,0,0,1.08-1.11,11.747,11.747,0,0,0,1.1-4.97c0-4.53-2.41-9.68-7.22-15.37C64.5,8.06,52.06-.61,38.61.56ZM3.4,37.6q0-.96.06-1.89c.06-.94,1.66-23.03,17.42-23.74a1.788,1.788,0,0,0,.92-.32C32.25,4.07,35.21,4.03,37.58,4l1.33-.05C51.06,2.9,62.42,10.88,68.46,18.03c4.9,5.8,6.38,10.12,6.38,13.23a8.371,8.371,0,0,1-.35,2.36c-1.63-.77-4.63-2.52-6.97-3.88-8.7-5.06-11.48-6.46-13.19-5.95,0,0-1.25,1.04-1.26,1.04-4.76,7.42-7.29,19.92-8.97,28.22-.13.62-.26,1.26-.39,1.89a4.588,4.588,0,0,0-1.44-2.84,9.719,9.719,0,0,0-9.74-1.16c-2.06,1.03-4.41,3.43-4.41,9.01,0,.12.01.25.01.37-1.25,1.17-2.29,3.24-3.54,5.78-1.46,2.98-3.23,6.58-5.23,8.06C13.17,68.07,3.4,51.8,3.4,37.6ZM53.07,24.83h0c.04-.05.06-.12.1-.17a.124.124,0,0,1,.02-.03C53.19,24.62,52.96,24.93,53.07,24.83ZM77.18,36.18c-.02.05-.03.1-.05.15a1.54,1.54,0,0,0,.08-.19A.138.138,0,0,0,77.18,36.18Z"/><path class="b" d="M69.24,52.1a1.136,1.136,0,1,0,2.13.79,8.143,8.143,0,0,1,1.37-2.47,4.044,4.044,0,0,1,1.28,1.29,1.138,1.138,0,0,0,1.94-1.19,5.446,5.446,0,0,0-2.89-2.41C71.18,47.7,69.86,50.44,69.24,52.1Z"/><path class="c" d="M65.94,60.21H60.36c-4.04,0-4.5-7.72-4.5-7.72,0-2.19,1.31-3.98,2.9-3.98h8.88c1.6,0,2.9,1.79,2.9,3.98C70.55,52.5,70.44,60.21,65.94,60.21Z"/><path class="b" d="M58.76,47.38c-2.23,0-4.04,2.29-4.04,5.11.02.43.58,8.85,5.63,8.85h5.58c4.43,0,5.7-5.55,5.75-8.83,0-2.84-1.81-5.13-4.04-5.13Zm-1.77,5.05c0-1.61.93-2.78,1.77-2.78h8.88c.84,0,1.77,1.17,1.77,2.85,0,.05-.2,6.58-3.48,6.58H60.35C57.94,59.08,57.1,54.15,56.99,52.43Z"/><path class="e" d="M109.56,141.81c.3-2.31,3.71-7.81,10.91-7.92,7.32-.12,11.1,3.92,13.29,4.78a23.853,23.853,0,0,0,7.16-1.88l2.58,13.29s-5.75,1.55-6.8,2.56C135.14,156.82,106.15,143.18,109.56,141.81Z"/><path class="b" d="M120.44,132.18c-7.51.12-11.56,5.41-12.4,8.73a1.94,1.94,0,0,0-.46,1.22,2.826,2.826,0,0,0,.02.29c.55,4.01,20.13,11.98,26.03,12.63,2.14.24,3.57-.19,4.3-1.22a31.406,31.406,0,0,1,6.01-2.12,1.708,1.708,0,0,0,1.26-1.64,1.841,1.841,0,0,0-.03-.33l-2.58-13.29a1.678,1.678,0,0,0-.93-1.2,1.749,1.749,0,0,0-1.53.02,23.2,23.2,0,0,1-6.11,1.61c-.37-.19-.8-.46-1.33-.79A20.882,20.882,0,0,0,120.44,132.18Zm-11.51,8.05a2,2,0,0,0-.72.56A1.662,1.662,0,0,1,108.93,140.23Zm1.69,2.83a1.093,1.093,0,0,1-.43.32A1.243,1.243,0,0,0,110.62,143.06Zm9.88-7.47a17.388,17.388,0,0,1,10.36,3.37,14.548,14.548,0,0,0,2.29,1.29,1.654,1.654,0,0,0,.85.1,32.314,32.314,0,0,0,5.64-1.25c.48,2.49,1.51,7.77,1.9,9.77-2.26.67-5.05,1.62-6.01,2.54a1.235,1.235,0,0,0-.17.27c-2.88,1.04-20.81-6.72-24.09-9.66C111.46,140.59,114.12,135.69,120.5,135.59Z"/><path class="c" d="M155.96,131.86l5.09,15.01L143.8,152.1l-4.25-15.75Z"/><path class="b" d="M155.51,130.22l-16.41,4.49a1.7,1.7,0,0,0-1.19,2.08l4.25,15.75a1.675,1.675,0,0,0,.82,1.04,1.733,1.733,0,0,0,1.32.14l17.25-5.22a1.7,1.7,0,0,0,1.12-2.17l-5.09-15.02A1.714,1.714,0,0,0,155.51,130.22Zm-.64,3.7c.73,2.15,3.22,9.5,4.01,11.84-2.45.74-11.45,3.47-13.89,4.2-.64-2.38-2.73-10.11-3.35-12.42C144.01,136.89,152.61,134.54,154.87,133.92Z"/><path class="f" d="M206.8,96.93s-24.07,23.96-35.53,28.82-26.22,7.85-26.22,7.85l4.75,17.67s20.5-5.5,30-10.33,29-21.67,29-21.67Z"/><path class="b" d="M205.6,95.72c-.24.24-23.96,23.79-35,28.45-11.17,4.73-25.75,7.72-25.89,7.75a1.7,1.7,0,0,0-1.31,2.11l4.75,17.67a1.7,1.7,0,0,0,2.08,1.2c.84-.23,20.78-5.6,30.33-10.46,9.57-4.87,28.54-21.2,29.34-21.9a1.68,1.68,0,0,0,.58-1.44l-2-22.33a1.707,1.707,0,0,0-1.11-1.45A1.737,1.737,0,0,0,205.6,95.72Zm-33.67,31.59c9.52-4.03,26.94-20.33,33.5-26.66.43,4.8,1.48,16.54,1.6,17.89-3.38,2.88-19.72,16.66-28,20.87-7.71,3.92-23.05,8.36-28.03,9.75-.65-2.42-3.16-11.77-3.84-14.29A155.663,155.663,0,0,0,171.93,127.31Z"/><path class="e" d="M124.54,163.45c6.76-1.12,10.64-11.58,11.34-13.62,2.18.26,1.9-6.65-1.51-8.02-2.86-.46-6.5-.91-9.22.5-2.3,1.19-3.07,5.91-5.83,5.57-3.19-.39-2.65-3.98-2.65-6.36,0-2.28.27-4.77,4.47-6.59a12.2,12.2,0,0,0-6.93,1.18c-.85.44-3.07,2.69-4.02,2.55a23.853,23.853,0,0,1-7.16-1.88l-2.58,13.29s5.75,1.55,6.8,2.56c1.55,4.19,4.33,7.28,6.95,8.57C117.36,162.77,121.06,164.02,124.54,163.45Z"/><path class="b" d="M113.41,134.6l-1.53,1.1a13.16,13.16,0,0,1-1.71,1.23,23.206,23.206,0,0,1-6.37-1.66,1.709,1.709,0,0,0-2.46,1.18l-2.58,13.29a1.842,1.842,0,0,0-.03.33,1.7,1.7,0,0,0,1.26,1.64,33.5,33.5,0,0,1,5.92,2.07c1.63,4.02,4.46,7.43,7.53,8.94,4.37,2.15,8.09,2.94,11.38,2.4h0c6.97-1.15,10.98-10.15,12.37-13.93a3.206,3.206,0,0,0,1.59-2.18,6.747,6.747,0,0,0,.19-1.68c0-2.66-1.25-6.01-3.97-7.11a1.557,1.557,0,0,0-.37-.1c-2.4-.38-6.87-1.09-10.28.67a8.444,8.444,0,0,0-3.01,3.35c-.61.99-1.31,2.11-1.83,2.04-.95-.12-1.26-.67-1.18-3.72l.02-.96c0-1.74,0-3.54,3.44-5.03a1.7,1.7,0,0,0-.55-3.26A14.105,14.105,0,0,0,113.41,134.6Zm.6,3.75.96-.73c.27-.14.55-.19.82-.3a9.216,9.216,0,0,0-.84,4.2l-.02.87c-.01.3-.02.62-.02.97,0,2.39.4,5.74,4.18,6.21,2.68.34,4.1-1.95,5.14-3.63a6.582,6.582,0,0,1,1.69-2.12c2.31-1.2,5.82-.7,7.88-.38a3.194,3.194,0,0,1,1.47,2.01,6.184,6.184,0,0,1,.3,1.87,2.932,2.932,0,0,1-.13.95,1.636,1.636,0,0,0-1.17,1.01c-1.82,5.3-5.53,11.75-10.01,12.49-2.56.42-5.61-.26-9.32-2.09-2.43-1.2-4.83-4.19-6.11-7.64a1.7,1.7,0,0,0-.42-.64c-.96-.91-3.75-1.87-6.01-2.54.39-1.99,1.41-7.27,1.89-9.77a33.272,33.272,0,0,0,5.64,1.25C111.29,140.53,112.62,139.47,114.01,138.35Zm21.67,13.17a1.409,1.409,0,0,0,.2.01A1.276,1.276,0,0,1,135.68,151.52Z"/><path class="e" d="M117.72,161.7c-.72,1.67-2.07,1.36-3.5.86a4.7,4.7,0,0,1-2.23-1.29c-.22-.24-.77-1.62-.95-1.67-2.56-.77-4.93-2.04-3.68-5.36a2.889,2.889,0,0,1,3.14-1.78c1.67.48,1.31,2.52,1.44,3.9.84-1.6,1.26-2.03,3.34-1.79a5.105,5.105,0,0,1,1.16,3.38c1.78-2.29,5.56-2.36,6.04,1.08C122.89,161.77,119.83,163.91,117.72,161.7Z"/><path class="b" d="M105.77,153.63a6.5,6.5,0,0,0-.45,2.28,4.489,4.489,0,0,0,.47,2.03,6.692,6.692,0,0,0,4.14,3.06c.06.11.12.23.12.23l.68,1.16a6.414,6.414,0,0,0,2.94,1.77c.8.28,2.84.95,4.38-.2a4.1,4.1,0,0,0,3.49-.08,4.927,4.927,0,0,0,2.65-5.11,4.576,4.576,0,0,0-3.31-4,5.215,5.215,0,0,0-3.32.29,11.938,11.938,0,0,0-.84-1.46,1.719,1.719,0,0,0-1.21-.74,6.4,6.4,0,0,0-2.24.08,3.232,3.232,0,0,0-2.28-2.13A4.588,4.588,0,0,0,105.77,153.63Zm3.06,2.81a1.267,1.267,0,0,1-.11-.54,3.226,3.226,0,0,1,.23-1.07c.15-.4.82-.82,1.08-.74a4.26,4.26,0,0,1,.17,1.42l.05,1a1.582,1.582,0,0,0,.97,1.33A4.231,4.231,0,0,1,108.83,156.44Zm4.62.7a3.473,3.473,0,0,1,.57-.92,1.209,1.209,0,0,1,.26-.02,3.036,3.036,0,0,1,.47,1.61v.14a1.7,1.7,0,0,0,3.04,1.04,2.282,2.282,0,0,1,2.2-.92c.17.04.68.18.82,1.19a1.523,1.523,0,0,1-.76,1.58c-.24.12-.62.21-1.1-.3a1.707,1.707,0,0,0-1.53-.5,1.676,1.676,0,0,0-1.26,1,.591.591,0,0,1-.15.25,4.43,4.43,0,0,1-1.23-.32,3.247,3.247,0,0,1-1.47-.78c-.06-.12-.22-.43-.22-.43a2.934,2.934,0,0,0-1.43-1.68A1.786,1.786,0,0,0,113.45,157.14Z"/><path class="f" d="M189.17,117.1c-3.14,11.43-5.21,45.5-5.21,45.5h50.21a319.877,319.877,0,0,0-3.7-36.5c-2.08-12.15-6.8-28.5-14.9-38.33-7.77-9.42-14.09-4.92-16.69-1.63C195.07,90.97,192.31,105.66,189.17,117.1Z"/><path class="b" d="M206.12,80.43c-4.46.05-7.48,3.27-8.58,4.66-3.07,3.89-5.31,12.92-7.68,22.47l-2.33,9.08c-3.15,11.47-5.18,44.45-5.27,45.85a1.71,1.71,0,0,0,1.7,1.81h50.21a1.7,1.7,0,0,0,1.22-.52,1.679,1.679,0,0,0,.47-1.24,324.6,324.6,0,0,0-3.73-36.72c-1.34-7.82-5.51-27.29-15.27-39.12C213.42,82.49,209.8,80.39,206.12,80.43Zm-15.31,37.12,2.35-9.17c2.18-8.79,4.44-17.87,7.05-21.19.79-1,2.95-3.33,5.94-3.36,2.6-.03,5.33,1.66,8.1,5.02,9.5,11.51,13.53,31.64,14.54,37.53a314.433,314.433,0,0,1,3.6,34.51H185.77C186.25,153.77,188.16,127.2,190.81,117.55Z"/><path class="c" d="M186.67,128.6s13-30.75,24.83-39c4.23-2.95-13.63-1.13-15.33,1.33C191.5,97.68,186.67,128.6,186.67,128.6Z"/><path class="b" d="M194.77,89.96c-4.83,6.99-9.58,37.09-9.78,38.37a1.71,1.71,0,0,0,1.21,1.9,1.688,1.688,0,0,0,2.03-.97c.13-.3,12.95-30.39,24.24-38.27,1.35-.94,1.47-1.92,1.33-2.58s-.64-1.52-2.26-1.85C208.38,85.92,196.75,87.1,194.77,89.96Zm2.8,1.94c1.05-.98,7.29-1.98,10.98-2.11-6.72,5.89-13.42,17.52-17.93,26.42C192.53,106.53,195.18,95.36,197.57,91.9Z"/><path class="b" d="M196.8,92.42a1.129,1.129,0,0,0-.75,1.42l2.89,9.47a1.136,1.136,0,1,0,2.17-.67l-2.89-9.47A1.145,1.145,0,0,0,196.8,92.42Z"/><path class="g" d="M188.02,112.64c.67-6.67,2.17-11.72,5-20.33l4,1,.65,3.86-3.75,1.25s-.19,4.45-.56,6.56-1,9-1,9l-6.02,17.96C186.34,131.93,187.43,118.55,188.02,112.64Z"/><path class="b" d="M191.94,91.95c-2.68,8.13-4.35,13.57-5.05,20.57l-1.69,19.31v.1a1.133,1.133,0,0,0,.9,1.11,1.146,1.146,0,0,0,1.31-.75l6.02-17.96a.751.751,0,0,0,.05-.26c.01-.07.63-6.87.99-8.91.29-1.64.47-4.54.54-5.93.95-.32,3.01-1,3.01-1a1.135,1.135,0,0,0,.78-1.07.615.615,0,0,0-.02-.19l-.65-3.86a1.153,1.153,0,0,0-.84-.91l-4-1A1.147,1.147,0,0,0,191.94,91.95Zm1.83,1.71c.86.21,1.59.4,2.25.56.11.67.23,1.36.36,2.17-1.05.35-2.83.94-2.83.94a1.129,1.129,0,0,0-.77,1.03c0,.04-.19,4.4-.55,6.41-.36,2.04-.93,8.18-1,8.96-.04.12-1.47,4.39-2.94,8.77.43-4.88.85-9.76.85-9.76C189.8,106.27,191.34,101.08,193.77,93.66Zm-6.88,18.87Z"/><path class="e" d="M234.9,38.1c-1.22-16.23-13.24-21.36-30.55-21.82-15.81-.43-26.91,1.27-29.79,15.1-1.29,6.2-.8,11.97-.41,18.42-2.26,6.12-5.51,14.34-5.58,16.25-.07,1.8,3.74,1.81,6.5,1.59A49.726,49.726,0,0,0,179.9,83.1c5.33,10,21.23,12.57,35.67,4.67C231.53,79.03,236.36,57.49,234.9,38.1Z"/><path class="b" d="M172.89,31.03a44.661,44.661,0,0,0-.87,9.25c0,2.71.17,5.42.34,8.2,0,0,.04.66.07,1.06-.21.56-1.36,3.64-1.36,3.64-2.57,6.85-4.14,11.13-4.2,12.81v.11a2.777,2.777,0,0,0,.87,2.02c.67.64,2.06,1.4,5.94,1.29a50.419,50.419,0,0,0,4.72,14.5c2.31,4.33,6.38,7.47,11.76,9.08,7.98,2.38,17.54,1.03,26.22-3.72,14.48-7.92,22.04-27.1,20.21-51.29h0c-1.52-20.23-19.11-23.04-32.2-23.4C189.68,14.18,176.2,15.13,172.89,31.03Zm1.36,23.35,1.49-3.99a1.658,1.658,0,0,0,.11-.58V49.7l-.09-1.43c-.17-2.81-.34-5.44-.34-8.02a41.387,41.387,0,0,1,.8-8.53c2.52-12.13,11.81-14.19,28.08-13.74,18.97.51,27.89,6.76,28.9,20.25h0c.64,8.55,1.22,37.28-18.45,48.05-7.77,4.25-16.6,5.54-23.61,3.45-4.49-1.34-7.86-3.91-9.73-7.42a47.948,47.948,0,0,1-4.65-14.91,1.7,1.7,0,0,0-1.82-1.44,11.924,11.924,0,0,1-4.61-.19C170.64,64.02,172.7,58.51,174.25,54.38Z"/><path class="e" d="M205.06,52.65c2.34-.51,11.91-1.23,11.68,6.27s-9.27,8.31-9.73,8.3"/><path class="b" d="M204.69,50.98a1.7,1.7,0,1,0,.73,3.33c1.7-.37,6.15-.59,8.31,1.2a3.889,3.889,0,0,1,1.31,3.35c-.18,6.07-7.98,6.65-8.06,6.65a1.712,1.712,0,0,0-1.65,1.72,1.686,1.686,0,0,0,1.66,1.68c1.83.02,11.2-1.63,11.45-9.95a7.26,7.26,0,0,0-2.54-6.07C212.48,50.06,206.65,50.55,204.69,50.98Z"/><path class="b" d="M185.83,53.69a2.545,2.545,0,1,1-2.52-2.57A2.539,2.539,0,0,1,185.83,53.69Z"/><path class="b" d="M233.43,11.22c-7.41-3.91-9.96.82-16.22-4.5C203.42-5,186.67,6.35,179.57,14.76c-4.23,5.01-10.36,15.86-9.33,24.86,3.96-2.48,6.05-5.29,9.99-7.86,7.67-5,.33,4.67-1.33,7.67,5.6-2.48,9.85-6.85,12.33-7.25,6.97,10.68,10.76,26.81,12.41,29.04,2.48-1.06.67-6.18,2.61-7.82,2.55-2.15,12-3.96,11.32,7.71,2.86,1.37,8.23,7.67,13.38,9.67,6.3-5.54,13.95-23.68,12.91-39.78C243.4,23.81,239.97,14.67,233.43,11.22Z"/><path class="b" d="M202.13.08c-9.83.81-19,7.83-23.86,13.59-4.5,5.33-10.8,16.69-9.72,26.16a1.7,1.7,0,0,0,2.59,1.25,39.369,39.369,0,0,0,5.34-4.17,42.654,42.654,0,0,1,4.02-3.23c-.55.9-1.14,1.82-1.54,2.44l-1.55,2.49a1.59,1.59,0,0,0-.25.86,1.728,1.728,0,0,0,.43,1.12,1.709,1.709,0,0,0,1.99.4,45.978,45.978,0,0,0,7.75-4.65,35.087,35.087,0,0,1,3.17-2.06c4.1,6.73,7.07,15.33,9.05,21.15,1.35,3.95,2.03,5.89,2.71,6.82a1.709,1.709,0,0,0,2.04.55c2.29-.98,2.44-3.59,2.55-5.49.05-.92.14-2.31.48-2.6a6.391,6.391,0,0,1,6.02-.71c2.34,1.17,2.65,4.47,2.5,7.03a1.7,1.7,0,0,0,.96,1.63,25.817,25.817,0,0,1,4.1,3.19c2.69,2.33,6.04,5.23,9.39,6.53a1.7,1.7,0,0,0,1.74-.31c5.98-5.25,13.58-21.75,13.58-37.97,0-1.07-.03-2.13-.1-3.19-.5-7.84-4.2-17.42-11.34-21.18a16.243,16.243,0,0,0-8.84-1.92c-2.44.04-4.2.07-7.07-2.37A21.329,21.329,0,0,0,202.13.08ZM180.86,15.87c4.44-5.26,12.75-11.67,21.54-12.4a18.216,18.216,0,0,1,13.7,4.55,11.975,11.975,0,0,0,9.34,3.18,12.805,12.805,0,0,1,7.19,1.53h0c5.93,3.13,9.1,11.72,9.53,18.39.06.98.09,1.96.09,2.95,0,14.34-6.39,29.19-11.63,34.65a39.611,39.611,0,0,1-7.46-5.46,40.472,40.472,0,0,0-3.87-3.11c0-.07.01-.14.01-.2,0-5.58-2.36-7.98-4.42-9.01a9.715,9.715,0,0,0-9.74,1.16c-1.29,1.09-1.52,2.77-1.63,4.37-.24-.7-.49-1.42-.74-2.15-2.16-6.31-5.41-15.85-10.12-23.07a1.705,1.705,0,0,0-1.7-.75c-1.6.26-3.36,1.49-5.58,3.05-.45.32-.97.65-1.45.98a8.646,8.646,0,0,0,1.44-3.73,2.061,2.061,0,0,0-.63-1.53c-1.38-1.38-3.45-.23-5.44,1.07a42.327,42.327,0,0,0-5.07,4.01c-.77.68-1.52,1.34-2.32,1.99C172.38,28.65,177.24,20.16,180.86,15.87Zm53.36-6.15Z"/><path class="c" d="M91.4,131.86l-5.1,15.01,17.25,5.23,4.25-15.75Z"/><path class="b" d="M89.79,131.31,84.7,146.33a1.7,1.7,0,0,0,1.12,2.17l17.25,5.22a1.733,1.733,0,0,0,1.32-.14,1.709,1.709,0,0,0,.82-1.04l4.25-15.75a1.7,1.7,0,0,0-1.19-2.08l-16.41-4.49A1.7,1.7,0,0,0,89.79,131.31Zm2.7,2.61c2.26.62,10.86,2.97,13.23,3.62-.62,2.31-2.71,10.04-3.35,12.42-2.44-.74-11.45-3.46-13.89-4.2C89.27,143.42,91.76,136.07,92.49,133.92Z"/><path class="h" d="M68.38,77.33a25.286,25.286,0,0,0,1.14-3.86s-10.12-.15-10,.57a13.193,13.193,0,0,0,2.82,5.1,8.986,8.986,0,0,0,4.47,2.05C67.01,81.23,67.57,79.39,68.38,77.33Z"/><path class="b" d="M61.6,53.69a2.545,2.545,0,1,0,2.52-2.57A2.539,2.539,0,0,0,61.6,53.69Z"/><path class="h" d="M179.16,77.33a25.287,25.287,0,0,1-1.14-3.86s10.13-.15,10,.57a13.051,13.051,0,0,1-2.82,5.1,8.986,8.986,0,0,1-4.47,2.05C180.53,81.23,179.97,79.39,179.16,77.33Z"/><path class="a" d="M40.53,97.48S64.6,121.44,76.06,126.3s26.22,7.85,26.22,7.85l-4.75,17.67s-20.5-5.5-30-10.33-33.84-11.18-33.84-11.18"/><path class="b" d="M39.32,96.28a1.706,1.706,0,0,0-.5,1.2,1.729,1.729,0,0,0,.5,1.21c.99.99,24.43,24.25,36.07,29.18a157.323,157.323,0,0,0,24.77,7.57c-.68,2.52-3.19,11.86-3.84,14.29-4.98-1.39-20.32-5.83-28.03-9.75-9.55-4.86-33.18-11.04-34.18-11.31a1.7,1.7,0,0,0-.85,3.29c.24.06,24.27,6.35,33.5,11.05,9.55,4.86,29.49,10.23,30.33,10.46a1.694,1.694,0,0,0,2.08-1.2l4.75-17.67a1.7,1.7,0,0,0-1.31-2.11c-.15-.03-14.72-3.02-25.89-7.75-11.03-4.67-34.76-28.22-35-28.45A1.684,1.684,0,0,0,39.32,96.28Z"/></g></svg>