<svg xmlns="http://www.w3.org/2000/svg" xmlns:xlink="http://www.w3.org/1999/xlink" width="320.602" height="243.652" viewBox="0 0 320.602 243.652"><defs><style>.a{fill:#fff;}.b{fill:#535253;}.c{fill:#d7eef9;}.d{clip-path:url(#a);}.e{fill:#71c2e5;}.f{fill:#4292c5;}.g{fill:#9ed7f0;}.h{fill:#54bae1;}.i{fill:#50b9e0;}.j{fill:#42beed;}.k{fill:#b6e0f3;}.l{fill:#5cbce1;}.m{fill:#66bee3;}.n{fill:#aeddf2;}.o{fill:#b1def3;}.p{fill:#1895d3;}.q{fill:#e8e8e8;}.r{fill:#eee;}.s{fill:#cbcbcb;}.t{fill:#c8e7f4;}.u{fill:#58c2ec;}</style><clipPath id="a"><circle cx="44.401" cy="44.401" r="44.401" transform="translate(0 62.792) rotate(-45)"/></clipPath></defs><g transform="translate(-78 -609)"><g transform="translate(78 609)"><g transform="translate(0 0)"><rect class="a" width="279.044" height="206.76" transform="translate(28.036 1.231) rotate(7.452)"/><path class="b" d="M1.07,207.469A1.215,1.215,0,0,1,.26,207a1.245,1.245,0,0,1-.245-.911L26.817,1.076A1.215,1.215,0,0,1,27.286.26,1.245,1.245,0,0,1,28.2.015L304.881,36.195h.007a1.227,1.227,0,0,1,1.054,1.381L279.134,242.587a1.215,1.215,0,0,1-.469.816,1.245,1.245,0,0,1-.911.245L1.07,207.469ZM29.1,2.613,2.613,205.184l274.243,35.86L303.344,38.473Z" transform="translate(-0.006 -0.006)"/><rect class="c" width="91.19" height="4.856" transform="translate(173.499 204.394) rotate(7.759)"/><rect class="c" width="91.19" height="4.856" transform="translate(172.629 210.78) rotate(7.759)"/><g transform="translate(136.261 66.014)"><g class="d" transform="translate(0 88.801) rotate(-45)"><circle class="e" cx="44.401" cy="44.401" r="44.401" transform="translate(18.396 18.391)"/></g><g class="d" transform="translate(26.012 26.006)"><path class="f" d="M285.421,157.3l-25.972,26.033,3.992,1.809-5.291,7.746.911,40.042,48.6-27.787Z" transform="translate(-244.868 -142.35)"/></g><g class="d" transform="translate(26.012 26.006)"><path class="g" d="M388.5,219.951l-18.518-54.575L317.7,147.64l-7.413,54.412L266.34,222.76l36.587,33.276,38.179-8.324-1.918-2.836Z" transform="translate(-247.489 -139.259)"/></g></g><g transform="translate(22.309 131.385)"><rect class="e" width="119.283" height="19.756" transform="translate(2.667 0) rotate(7.759)"/><rect class="h" width="87.449" height="19.756" transform="translate(26.309 3.223) rotate(7.759)"/><rect class="f" width="65.919" height="19.756" transform="translate(61.763 8.049) rotate(7.759)"/><rect class="i" width="39.172" height="19.756" transform="translate(99.382 13.179) rotate(7.759)"/></g><g transform="translate(18.706 157.811)"><rect class="e" width="119.283" height="19.756" transform="translate(2.667 0) rotate(7.759)"/><rect class="h" width="70.033" height="19.756" transform="translate(43.57 5.575) rotate(7.759)"/><rect class="f" width="49.271" height="19.756" transform="translate(78.259 10.301) rotate(7.759)"/><rect class="i" width="19.586" height="19.756" transform="translate(118.789 15.826) rotate(7.759)"/></g><g transform="translate(76.345 195.402)"><circle class="i" cx="5.1" cy="5.1" r="5.1" transform="translate(61.646 13.403) rotate(-37.238)"/><circle class="f" cx="5.1" cy="5.1" r="5.1" transform="translate(40.736 12.984) rotate(-56.887)"/><circle class="h" cx="5.1" cy="5.1" r="5.1" transform="translate(21.675 3.547)"/><circle class="e" cx="5.1" cy="5.1" r="5.1" transform="translate(0 1.437) rotate(-8.1)"/></g><g transform="translate(26.593 10.67)"><rect class="j" width="137.475" height="16.192" transform="translate(14.828 0) rotate(7.759)"/><rect class="k" width="2.462" height="137.475" transform="translate(10.114 34.595) rotate(-82.241)"/><rect class="k" width="2.462" height="137.475" transform="translate(7.587 53.141) rotate(-82.241)"/><rect class="k" width="2.462" height="137.475" transform="translate(5.061 71.68) rotate(-82.241)"/><rect class="k" width="2.462" height="137.475" transform="translate(2.527 90.225) rotate(-82.241)"/><rect class="k" width="2.462" height="137.475" transform="translate(0 108.771) rotate(-82.241)"/></g><g transform="translate(26.944 54.877)"><rect class="i" width="14.438" height="41.164" transform="translate(5.557 21.25) rotate(7.759)"/><rect class="l" width="30.215" height="14.438" transform="translate(30.472 66.194) rotate(-82.241)"/><rect class="m" width="42.456" height="14.438" transform="translate(60.947 70.344) rotate(-82.241)"/><rect class="n" width="52.181" height="14.438" transform="translate(91.423 74.504) rotate(-82.241)"/><rect class="o" width="14.438" height="79.37" transform="translate(132.624 0) rotate(7.759)"/></g><g transform="translate(191.346 29.837)"><rect class="g" width="16.614" height="20.837" transform="translate(1.376 17.864) rotate(-82.241)"/><path class="a" d="M304.458,65.934,281.37,62.786l2.577-18.906,23.088,3.149Zm-20.32-5.25,18.205,2.482,1.911-14.023-18.205-2.482Z" transform="translate(-281.37 -43.88)"/></g><g transform="translate(211.992 32.66)"><rect class="g" width="16.614" height="41.361" transform="translate(1.377 17.857) rotate(-82.241)"/><path class="a" d="M355.152,72.852,311.73,66.936l2.577-18.906,43.422,5.917ZM314.5,64.828l38.539,5.25,1.911-14.023L316.416,50.8Z" transform="translate(-311.73 -48.03)"/></g><g transform="translate(252.973 38.243)"><rect class="g" width="16.614" height="31.099" transform="translate(1.375 17.863) rotate(-82.241)"/><path class="a" d="M405.245,79.675,371.99,75.146l2.578-18.906,33.255,4.529Zm-30.487-6.637,28.372,3.87,1.918-14.03-28.372-3.87Z" transform="translate(-371.99 -56.24)"/></g><g transform="translate(189.254 46.461)"><rect class="p" width="16.614" height="20.837" transform="translate(1.223 17.704) rotate(-82.241)"/><path class="a" d="M300.006,90.056l-20.647-2.815a1.234,1.234,0,0,1-1.054-1.387l2.244-16.464a1.234,1.234,0,0,1,1.387-1.054l20.647,2.815a1.238,1.238,0,0,1,1.054,1.387L301.393,89A1.234,1.234,0,0,1,300.006,90.056Zm-19.1-5.087,18.205,2.482,1.911-14.023-18.205-2.482Z" transform="translate(-278.294 -68.324)"/></g><g transform="translate(209.901 49.276)"><rect class="p" width="16.614" height="41.355" transform="translate(1.224 17.704) rotate(-82.241)"/><path class="a" d="M350.7,96.964l-40.981-5.583a1.238,1.238,0,0,1-1.054-1.387l2.244-16.464a1.238,1.238,0,0,1,1.387-1.054l40.981,5.583a1.234,1.234,0,0,1,1.054,1.387L352.087,95.91A1.229,1.229,0,0,1,350.7,96.964Zm-39.423-7.855,38.539,5.25,1.911-14.023-38.539-5.25Z" transform="translate(-308.654 -72.464)"/></g><g transform="translate(250.881 54.86)"><rect class="p" width="16.614" height="31.099" transform="translate(1.223 17.71) rotate(-82.241)"/><path class="a" d="M400.793,103.794l-30.814-4.2a1.238,1.238,0,0,1-1.054-1.387l2.244-16.464a1.238,1.238,0,0,1,1.387-1.054l30.814,4.2a1.234,1.234,0,0,1,1.054,1.387l-2.244,16.464A1.234,1.234,0,0,1,400.793,103.794ZM371.53,97.319l28.372,3.87,1.911-14.023L373.441,83.3Z" transform="translate(-368.914 -80.674)"/></g><g transform="translate(187.01 62.925)"><rect class="p" width="16.614" height="20.837" transform="translate(1.223 17.703) rotate(-82.241)"/><path class="a" d="M296.706,114.266l-20.647-2.815A1.234,1.234,0,0,1,275,110.063L277.249,93.6a1.234,1.234,0,0,1,1.387-1.054l20.647,2.815a1.238,1.238,0,0,1,1.054,1.387l-2.244,16.464A1.23,1.23,0,0,1,296.706,114.266Zm-19.1-5.087,18.205,2.482,1.911-14.023-18.205-2.482Z" transform="translate(-274.994 -92.534)"/></g><g transform="translate(207.657 65.741)"><rect class="p" width="16.614" height="41.361" transform="translate(1.224 17.703) rotate(-82.241)"/><path class="a" d="M347.4,121.174l-40.981-5.583a1.234,1.234,0,0,1-1.054-1.387l2.244-16.464A1.238,1.238,0,0,1,309,96.685l40.981,5.583a1.234,1.234,0,0,1,1.054,1.387l-2.244,16.464A1.229,1.229,0,0,1,347.4,121.174Zm-39.423-7.855,38.539,5.25,1.911-14.023L309.887,99.3Z" transform="translate(-305.354 -96.674)"/></g><g transform="translate(248.637 71.324)"><rect class="p" width="16.614" height="31.099" transform="translate(1.224 17.702) rotate(-82.241)"/><path class="a" d="M397.493,128l-30.814-4.2a1.234,1.234,0,0,1-1.054-1.387l2.244-16.464a1.238,1.238,0,0,1,1.387-1.054l30.814,4.2a1.234,1.234,0,0,1,1.054,1.387l-2.244,16.464A1.234,1.234,0,0,1,397.493,128Zm-29.256-6.474,28.372,3.87,1.911-14.023-28.372-3.87Z" transform="translate(-365.614 -104.884)"/></g><g transform="translate(184.772 79.39)"><rect class="p" width="16.614" height="20.837" transform="translate(1.217 17.703) rotate(-82.241)"/><path class="a" d="M293.416,138.476l-20.647-2.815a1.234,1.234,0,0,1-1.054-1.387l2.244-16.464a1.234,1.234,0,0,1,1.387-1.054l20.647,2.815a1.234,1.234,0,0,1,1.054,1.387L294.8,137.422A1.238,1.238,0,0,1,293.416,138.476Zm-19.1-5.087,18.205,2.482,1.911-14.023-18.205-2.482Z" transform="translate(-271.704 -116.744)"/></g><g transform="translate(205.412 82.205)"><rect class="p" width="16.614" height="41.361" transform="translate(1.224 17.703) rotate(-82.241)"/><path class="a" d="M344.1,145.384,303.119,139.8a1.234,1.234,0,0,1-1.054-1.387l2.244-16.464a1.234,1.234,0,0,1,1.387-1.054l40.981,5.583a1.238,1.238,0,0,1,1.054,1.387l-2.244,16.464A1.229,1.229,0,0,1,344.1,145.384Zm-39.423-7.862,38.539,5.25,1.911-14.023-38.539-5.25Z" transform="translate(-302.054 -120.884)"/></g><g transform="translate(246.393 87.789)"><rect class="p" width="16.614" height="31.099" transform="translate(1.217 17.701) rotate(-82.241)"/><path class="a" d="M394.193,152.214l-30.814-4.2a1.234,1.234,0,0,1-1.054-1.387l2.244-16.464a1.238,1.238,0,0,1,1.387-1.054l30.814,4.2a1.234,1.234,0,0,1,1.054,1.387l-2.244,16.464A1.234,1.234,0,0,1,394.193,152.214Zm-29.256-6.474,28.372,3.87,1.911-14.023-28.372-3.87Z" transform="translate(-362.314 -129.094)"/></g><rect class="i" width="52.066" height="10.194" transform="translate(17.366 187.209) rotate(7.759)"/><rect class="f" width="12.52" height="55.153" transform="translate(318.578 81.565) rotate(80.701)"/></g><g transform="translate(9.713 8.544)"><rect class="a" width="279.044" height="206.76" transform="translate(1.233 10.43) rotate(-1.891)"/><path class="b" d="M22.375,230.877a1.232,1.232,0,0,1-.877-.333,1.214,1.214,0,0,1-.388-.857L14.29,23.043a1.231,1.231,0,0,1,1.19-1.272l278.894-9.2h.007a1.23,1.23,0,0,1,1.265,1.19l6.814,206.651a1.231,1.231,0,0,1-1.19,1.272L22.375,230.877ZM16.792,24.192l6.733,204.189,276.432-9.12L293.225,15.072Z" transform="translate(-14.288 -12.569)"/><rect class="c" width="91.19" height="4.856" transform="translate(177.729 187.319) rotate(-1.576)"/><rect class="c" width="91.19" height="4.856" transform="translate(177.905 193.759) rotate(-1.576)"/><g transform="translate(131.774 41.21)"><g class="d" transform="translate(0 88.801) rotate(-45)"><circle class="e" cx="44.401" cy="44.401" r="44.401" transform="translate(18.394 18.391)"/></g><g class="d" transform="translate(26.01 26.006)"><path class="f" d="M284.882,139.63l-21.4,29.9,4.23,1.136-3.965,8.5,7.406,39.369,43.443-35.309Z" transform="translate(-251.798 -120.437)"/></g><g class="d" transform="translate(26.01 26.006)"><path class="q" d="M399.906,182.886l-27.128-50.848-54.466-9.018,1.51,54.895-40,27.563,41.5,26.9,36.322-14.411-2.353-2.489Z" transform="translate(-257.026 -115.123)"/></g></g><g transform="translate(19.324 135.604)"><rect class="e" width="119.283" height="19.756" transform="translate(0 3.761) rotate(-1.576)"/><rect class="h" width="87.449" height="19.756" transform="translate(23.85 3.106) rotate(-1.576)"/><rect class="f" width="65.919" height="19.756" transform="translate(59.623 2.117) rotate(-1.576)"/><rect class="i" width="39.172" height="19.756" transform="translate(97.572 1.077) rotate(-1.576)"/></g><g transform="translate(20.058 162.266)"><rect class="e" width="119.283" height="19.756" transform="translate(0 3.763) rotate(-1.576)"/><rect class="h" width="70.033" height="19.756" transform="translate(41.263 2.624) rotate(-1.576)"/><rect class="f" width="49.271" height="19.756" transform="translate(76.268 1.666) rotate(-1.576)"/><rect class="i" width="19.586" height="19.756" transform="translate(117.154 0.539) rotate(-1.576)"/></g><g transform="translate(81.598 191.296)"><path class="i" d="M238.493,300.017a5.1,5.1,0,1,1-5.236-4.958A5.1,5.1,0,0,1,238.493,300.017Z" transform="translate(-164.356 -294.243)"/><path class="f" d="M207.313,300.877a5.1,5.1,0,1,1-5.237-4.958A5.1,5.1,0,0,1,207.313,300.877Z" transform="translate(-154.38 -294.518)"/><circle class="h" cx="5.1" cy="5.1" r="5.1" transform="translate(19.549 8.425) rotate(-55.681)"/><circle class="e" cx="5.1" cy="5.1" r="5.1" transform="translate(0 12.419) rotate(-86.147)"/></g><g transform="translate(15.975 13.799)"><rect class="j" width="137.475" height="16.192" transform="translate(0 3.781) rotate(-1.576)"/><rect class="r" width="137.475" height="2.462" transform="translate(0.895 36.209) rotate(-1.576)"/><rect class="r" width="137.475" height="2.462" transform="translate(1.411 54.918) rotate(-1.576)"/><rect class="r" width="137.475" height="2.462" transform="translate(1.92 73.626) rotate(-1.576)"/><rect class="r" width="137.475" height="2.462" transform="translate(2.436 92.334) rotate(-1.576)"/><rect class="r" width="137.475" height="2.462" transform="translate(2.953 111.042) rotate(-1.576)"/></g><g transform="translate(17.794 41.64)"><rect class="i" width="14.438" height="41.164" transform="translate(0 41.977) rotate(-1.576)"/><rect class="l" width="14.438" height="30.215" transform="translate(31.045 52.075) rotate(-1.576)"/><rect class="m" width="14.438" height="42.456" transform="translate(61.459 38.994) rotate(-1.576)"/><rect class="n" width="14.438" height="52.181" transform="translate(91.934 28.422) rotate(-1.576)"/><rect class="o" width="14.438" height="79.37" transform="translate(121.939 0.397) rotate(-1.576)"/></g><g transform="translate(169.568 11.113)"><rect class="s" width="20.837" height="16.614" transform="translate(1.26 1.841) rotate(-1.576)"/><path class="a" d="M287.446,47.979l-23.292.639-.524-19.069,23.292-.639Zm-20.9-1.891,18.368-.5-.388-14.145-18.368.5Z" transform="translate(-263.63 -28.91)"/></g><g transform="translate(190.399 9.97)"><rect class="s" width="41.361" height="16.614" transform="translate(1.257 2.409) rotate(-1.576)"/><path class="a" d="M338.587,46.3l-43.8,1.2-.524-19.069,43.8-1.2ZM297.177,44.98l38.879-1.075-.388-14.145L296.79,30.834Z" transform="translate(-294.26 -27.23)"/></g><g transform="translate(231.74 9.113)"><rect class="s" width="31.099" height="16.614" transform="translate(1.261 2.127) rotate(-1.576)"/><path class="a" d="M389.121,45.039l-33.548.925-.524-19.069L388.6,25.97Zm-31.154-1.6,28.624-.789L386.2,28.5l-28.624.789Z" transform="translate(-355.05 -25.97)"/></g><g transform="translate(170.057 27.753)"><rect class="t" width="20.837" height="16.614" transform="translate(1.226 1.807) rotate(-1.576)"/><path class="a" d="M286.9,72.449l-20.83.571a1.231,1.231,0,0,1-1.265-1.2l-.456-16.607a1.231,1.231,0,0,1,1.2-1.265l20.83-.571a1.231,1.231,0,0,1,1.265,1.2l.456,16.607A1.231,1.231,0,0,1,286.9,72.449Zm-19.667-1.925,18.369-.5-.388-14.145-18.369.5Z" transform="translate(-264.349 -53.379)"/></g><g transform="translate(190.888 26.611)"><rect class="t" width="41.361" height="16.614" transform="translate(1.222 2.376) rotate(-1.576)"/><path class="a" d="M338.041,70.769,296.7,71.9a1.231,1.231,0,0,1-1.265-1.2L294.98,54.1a1.231,1.231,0,0,1,1.2-1.265L337.518,51.7a1.231,1.231,0,0,1,1.265,1.2l.456,16.607A1.227,1.227,0,0,1,338.041,70.769Zm-40.178-1.353,38.879-1.075L336.355,54.2,297.476,55.27Z" transform="translate(-294.979 -51.699)"/></g><g transform="translate(232.236 25.761)"><rect class="t" width="31.099" height="16.614" transform="translate(1.22 2.093) rotate(-1.576)"/><path class="a" d="M388.586,69.519l-31.086.857a1.231,1.231,0,0,1-1.265-1.2l-.456-16.607a1.231,1.231,0,0,1,1.2-1.265l31.086-.857a1.231,1.231,0,0,1,1.265,1.2l.456,16.607A1.244,1.244,0,0,1,388.586,69.519Zm-29.93-1.639,28.624-.789-.388-14.145-28.624.789Z" transform="translate(-355.779 -50.449)"/></g><g transform="translate(170.513 44.361)"><rect class="t" width="20.837" height="16.614" transform="translate(1.225 1.814) rotate(-1.576)"/><path class="a" d="M287.571,96.869l-20.83.571a1.231,1.231,0,0,1-1.265-1.2l-.456-16.607a1.231,1.231,0,0,1,1.2-1.265l20.83-.571a1.231,1.231,0,0,1,1.265,1.2l.456,16.607A1.227,1.227,0,0,1,287.571,96.869ZM267.9,94.951l18.369-.5L285.884,80.3l-18.369.5Z" transform="translate(-265.019 -77.799)"/></g><g transform="translate(191.35 43.225)"><rect class="t" width="41.361" height="16.614" transform="translate(1.222 2.375) rotate(-1.576)"/><path class="a" d="M338.721,95.2,297.38,96.334a1.231,1.231,0,0,1-1.265-1.2L295.66,78.53a1.231,1.231,0,0,1,1.2-1.265L338.2,76.13a1.231,1.231,0,0,1,1.265,1.2l.456,16.607A1.236,1.236,0,0,1,338.721,95.2Zm-40.185-1.36,38.879-1.075-.388-14.145-38.879,1.074Z" transform="translate(-295.659 -76.129)"/></g><g transform="translate(232.691 42.368)"><rect class="t" width="31.099" height="16.614" transform="translate(1.219 2.093) rotate(-1.576)"/><path class="a" d="M389.256,93.939,358.17,94.8a1.231,1.231,0,0,1-1.265-1.2l-.456-16.607a1.231,1.231,0,0,1,1.2-1.265l31.086-.857a1.231,1.231,0,0,1,1.265,1.2l.456,16.607A1.231,1.231,0,0,1,389.256,93.939ZM359.333,92.3l28.624-.789-.388-14.145-28.624.789Z" transform="translate(-356.449 -74.869)"/></g><g transform="translate(170.975 60.975)"><rect class="t" width="20.837" height="16.614" transform="translate(1.218 1.806) rotate(-1.576)"/><path class="a" d="M288.251,121.3l-20.83.571a1.231,1.231,0,0,1-1.265-1.2l-.456-16.607a1.231,1.231,0,0,1,1.2-1.265l20.83-.571a1.231,1.231,0,0,1,1.265,1.2l.456,16.607A1.236,1.236,0,0,1,288.251,121.3Zm-19.667-1.925,18.368-.5-.388-14.145-18.369.5Z" transform="translate(-265.699 -102.229)"/></g><g transform="translate(191.806 59.832)"><rect class="t" width="41.361" height="16.614" transform="translate(1.221 2.375) rotate(-1.576)"/><path class="a" d="M339.391,119.619l-41.341,1.136a1.231,1.231,0,0,1-1.265-1.2l-.456-16.607a1.231,1.231,0,0,1,1.2-1.265l41.341-1.136a1.231,1.231,0,0,1,1.265,1.2l.456,16.607A1.227,1.227,0,0,1,339.391,119.619Zm-40.178-1.353,38.879-1.074-.388-14.145-38.879,1.075Z" transform="translate(-296.329 -100.549)"/></g><g transform="translate(233.147 58.975)"><rect class="t" width="31.099" height="16.614" transform="translate(1.218 2.093) rotate(-1.576)"/><path class="a" d="M389.926,118.359l-31.086.857a1.231,1.231,0,0,1-1.265-1.2l-.456-16.607a1.231,1.231,0,0,1,1.2-1.265L389.4,99.29a1.231,1.231,0,0,1,1.265,1.2l.456,16.607A1.227,1.227,0,0,1,389.926,118.359ZM360,116.72l28.624-.789-.388-14.145-28.624.789Z" transform="translate(-357.119 -99.289)"/></g><rect class="i" width="52.066" height="10.194" transform="translate(20.876 195.684) rotate(-1.576)"/><rect class="u" width="12.52" height="55.153" transform="matrix(0.566, 0.824, -0.824, 0.566, 301.846, 44.626)"/></g></g></g></svg>